# xmcd
#
# Track frame offsets: 
#        150
#        11003
#        23123
#        34570
#        47140
#        60006
#        73926
#        85917
#        96556
#        107390
#        118054
#        130319
#        140502
#        153053
#        163610
#        177046
#        189859
#        204852
#        216651
#        226658
#
# Disc length: 3193 seconds
#
# Revision: 0
# Processed by: cddbd v1.5.2PL0 Copyright (c) Steve Scherf et al.
# Submitted via: ExactAudioCopyFreeDBPlugin 1.0
#
DISCID=030c7714
DTITLE=Various Artist - 60 Country Hits
DYEAR=2019
DGENRE=Country
TTITLE0=Faron Young - Hello Walls
TTITLE1=Hank Williams - Howlin' At The Moon
TTITLE2=Webb Pierce and Red Sovine - Why Baby Why
TTITLE3=Roy Acuff - Wabash Cannonball
TTITLE4=Johnny Ca - Folsom Prison Blues
TTITLE5=Lefty Frizzell - Long Black Veil
TTITLE6=Ernest Tubb - Walkin' The Floor Over You
TTITLE7=Patsy Cline - I Don't Wanna
TTITLE8=The Everly Brothers - Bye Bye Love
TTITLE9=Leroy Van Dyke - Walk On By
TTITLE10=Hank Williams - Lost Highway
TTITLE11=The Maddox Brothers and Rose - The Hiccough Song
TTITLE12=Hank Snow - The Golden Rocket
TTITLE13=Webb Pierce - Mora And More
TTITLE14="Little" Jimmy Dickens - Country Boy
TTITLE15=Kitty Wells - Makin' Believe
TTITLE16=Marty Robbins - Rose Of Ol'Pawnee
TTITLE17=Skeeter Davis - I Forgot More Than You'll Ever Know
TTITLE18=Leroy Van Dyke - Take Good Care Of Her
TTITLE19="Little" Jimmy Dickens - Take An Old Cold Tater And Wait
EXTD=
EXTT0=
EXTT1=
EXTT2=
EXTT3=
EXTT4=
EXTT5=
EXTT6=
EXTT7=
EXTT8=
EXTT9=
EXTT10=
EXTT11=
EXTT12=
EXTT13=
EXTT14=
EXTT15=
EXTT16=
EXTT17=
EXTT18=
EXTT19=
PLAYORDER=
